<svg id="calendar_today_black_24dp" xmlns="http://www.w3.org/2000/svg" width="14.316" height="14.316" viewBox="0 0 14.316 14.316">
  <path id="Caminho_581" data-name="Caminho 581" d="M0,0H14.316V14.316H0Z" fill="none"/>
  <path id="Caminho_582" data-name="Caminho 582" d="M12.737,2.193h-.6V1.6a.6.6,0,1,0-1.193,0v.6H4.983V1.6a.6.6,0,1,0-1.193,0v.6h-.6A1.2,1.2,0,0,0,2,3.386V12.93a1.2,1.2,0,0,0,1.193,1.193h9.544A1.2,1.2,0,0,0,13.93,12.93V3.386A1.2,1.2,0,0,0,12.737,2.193Zm-.6,10.737H3.79a.6.6,0,0,1-.6-.6V5.176h9.544v7.158A.6.6,0,0,1,12.141,12.93Z" transform="translate(-0.807 -0.403)" fill="#142341"/>
</svg>
