<svg id="today_black_24dp" xmlns="http://www.w3.org/2000/svg" width="15.364" height="15.364" viewBox="0 0 15.364 15.364">
  <path id="Caminho_594" data-name="Caminho 594" d="M0,0H15.364V15.364H0Z" fill="none"/>
  <path id="Caminho_595" data-name="Caminho 595" d="M13.243,2.28H12.6V1.64a.64.64,0,0,0-1.28,0v.64H6.2V1.64a.64.64,0,1,0-1.28,0v.64H4.28a1.275,1.275,0,0,0-1.274,1.28L3,12.523A1.28,1.28,0,0,0,4.28,13.8h8.962a1.284,1.284,0,0,0,1.28-1.28V3.561A1.284,1.284,0,0,0,13.243,2.28ZM12.6,12.523H4.92a.642.642,0,0,1-.64-.64v-6.4h8.962v6.4A.642.642,0,0,1,12.6,12.523ZM6.2,6.761h1.92a.642.642,0,0,1,.64.64v1.92a.642.642,0,0,1-.64.64H6.2a.642.642,0,0,1-.64-.64V7.4A.642.642,0,0,1,6.2,6.761Z" transform="translate(-1.08 -0.36)" fill="#142341"/>
</svg>
