<svg xmlns="http://www.w3.org/2000/svg" width="53" height="53" viewBox="0 0 53 53">
  <g id="Grupo_33349" data-name="Grupo 33349" transform="translate(-255 -213)">
    <circle id="Elipse_354" data-name="Elipse 354" cx="26.5" cy="26.5" r="26.5" transform="translate(255 213)" fill="#b0b6c0"/>
    <g id="party-popper" transform="translate(265.46 222.326)">
      <path id="Caminho_23195" data-name="Caminho 23195" d="M16.057,25.106c-1.1.4-2.49.916-4.252,1.569-3.009-.42-6.171-1.4-7.538-3.646.5-1.341.932-2.516,1.316-3.553,2.576,2.976,7.077,4.866,10.474,5.63Z" fill="#142341"/>
      <path id="Caminho_23196" data-name="Caminho 23196" d="M16.931,15.069C14,12.142,10.233,9.98,8.7,11.52c-.328.328-.229.132-2.508,6.317,2.43,3.507,8.57,5.956,12.847,6.171,1.279-.481,1.249-.5,1.446-.7C22.366,21.42,18.815,16.952,16.931,15.069Zm2.488,7.174c-.143.145-.808.152-1.989-.431A16.645,16.645,0,0,1,13.3,18.694c-3.188-3.188-3.933-5.73-3.549-6.114a.469.469,0,0,1,.331-.092c.861,0,3.092.951,5.784,3.642a16.652,16.652,0,0,1,3.119,4.125C19.573,21.434,19.563,22.1,19.419,22.243Z" fill="#142341"/>
      <path id="Caminho_23197" data-name="Caminho 23197" d="M9.059,27.694c-1.732.644-3.729,1.39-6.048,2.259a.75.75,0,0,1-.964-.964c.584-1.564,1.111-2.978,1.591-4.268A10.506,10.506,0,0,0,9.059,27.694Z" fill="#142341"/>
      <path id="Caminho_23198" data-name="Caminho 23198" d="M19.669,3.895a4.849,4.849,0,0,0-1.224.31c.46.706,1.421,1.605.834,2.779-.525,1.05-1.616.988-2.563,1.021.581.794,1.253,1.6.735,2.636-.537,1.075-1.945,1.3-2.776,1.433a.5.5,0,0,1-.569-.4l-.182-.982a.5.5,0,0,1,.406-.584,4.8,4.8,0,0,0,1.224-.31c-.462-.7-1.419-1.609-.835-2.778C15.243,5.97,16.333,6.029,17.282,6,16.7,5.2,16.029,4.4,16.547,3.36c.537-1.074,1.946-1.3,2.775-1.433a.5.5,0,0,1,.568.4l.182.982a.5.5,0,0,1-.4.583Z" fill="#142341"/>
      <path id="Caminho_23199" data-name="Caminho 23199" d="M28.689,11.925l.982.182a.5.5,0,0,1,.4.568c-.135.829-.359,2.238-1.433,2.775C27.6,15.968,26.8,15.3,26,14.715c-.033.949.026,2.04-1.021,2.563-1.169.584-2.077-.373-2.778-.835a4.8,4.8,0,0,0-.31,1.224.5.5,0,0,1-.584.406l-.982-.182a.5.5,0,0,1-.4-.569c.135-.83.359-2.238,1.433-2.776,1.036-.518,1.842.154,2.636.735.033-.947-.029-2.039,1.021-2.563,1.174-.587,2.073.374,2.779.834a4.849,4.849,0,0,0,.31-1.224.5.5,0,0,1,.583-.4Z" fill="#142341"/>
      <path id="Caminho_23200" data-name="Caminho 23200" d="M25.7,21H23.8a.3.3,0,0,1-.3-.3v-.9a.3.3,0,0,1,.3-.3h1.9a.3.3,0,0,1,.3.3v.9A.3.3,0,0,1,25.7,21Z" fill="#142341"/>
      <path id="Caminho_23201" data-name="Caminho 23201" d="M27.788,3.273,26.444,4.617a.3.3,0,0,1-.424,0l-.636-.637a.3.3,0,0,1,0-.424l1.344-1.344a.3.3,0,0,1,.424,0l.636.636a.3.3,0,0,1,0,.425Z" fill="#142341"/>
      <path id="Caminho_23202" data-name="Caminho 23202" d="M12.2,6.5h-.9a.3.3,0,0,1-.3-.3V4.3a.3.3,0,0,1,.3-.3h.9a.3.3,0,0,1,.3.3V6.2A.3.3,0,0,1,12.2,6.5Z" fill="#142341"/>
      <path id="Caminho_23203" data-name="Caminho 23203" d="M19.383,13.255l-.75-.5a.3.3,0,0,1-.085-.423c2.041-2.9,5.976-5.931,10.139-6.077A.308.308,0,0,1,29,6.562v.9a.293.293,0,0,1-.286.292c-3.483.138-7.051,2.761-8.928,5.424a.29.29,0,0,1-.4.076Z" fill="#142341"/>
    </g>
  </g>
</svg>
