<svg id="_1161953_instagram_icon" data-name="1161953_instagram_icon" xmlns="http://www.w3.org/2000/svg" width="14.731" height="14.731" viewBox="0 0 14.731 14.731">
  <path id="Caminho_435" data-name="Caminho 435" d="M19.2,16.7A3.8,3.8,0,1,0,23,20.5,3.809,3.809,0,0,0,19.2,16.7Zm0,6.237A2.435,2.435,0,1,1,21.637,20.5,2.446,2.446,0,0,1,19.2,22.937Z" transform="translate(-11.836 -13.166)" fill="#142341"/>
  <ellipse id="Elipse_68" data-name="Elipse 68" cx="0.861" cy="0.861" rx="0.861" ry="0.861" transform="translate(10.454 2.584)" fill="#142341"/>
  <path id="Caminho_436" data-name="Caminho 436" d="M16.943,6.018A4.23,4.23,0,0,0,13.824,4.8H7.706A4.069,4.069,0,0,0,3.4,9.106v6.088a4.273,4.273,0,0,0,1.247,3.178,4.334,4.334,0,0,0,3.089,1.158h6.059a4.385,4.385,0,0,0,3.118-1.158,4.252,4.252,0,0,0,1.218-3.148V9.106A4.257,4.257,0,0,0,16.943,6.018Zm-.119,9.207a2.9,2.9,0,0,1-.861,2.168,3.07,3.07,0,0,1-2.168.772H7.736a3.07,3.07,0,0,1-2.168-.772,2.985,2.985,0,0,1-.8-2.2V9.106a2.961,2.961,0,0,1,.8-2.168,3.02,3.02,0,0,1,2.168-.772h6.118a2.961,2.961,0,0,1,2.168.8,3.065,3.065,0,0,1,.8,2.138v6.118Z" transform="translate(-3.4 -4.8)" fill="#142341"/>
</svg>
