<svg xmlns="http://www.w3.org/2000/svg" width="53" height="53" viewBox="0 0 53 53">
  <g id="Grupo_33349" data-name="Grupo 33349" transform="translate(-255 -213)">
    <circle id="Elipse_354" data-name="Elipse 354" cx="26.5" cy="26.5" r="26.5" transform="translate(255 213)" fill="#b0b6c0"/>
    <path id="fast-delivery" d="M27.489.227c3.343.776,4.622,2.731,6.225,5.421H27.489ZM7.951,5.874a.992.992,0,0,1,1.13,1.054,1.13,1.13,0,0,1-1.126,1.13H1.13a1.13,1.13,0,1,0,0,2.259H11.3a1.13,1.13,0,1,1,0,2.259H1.13a1.13,1.13,0,0,0,0,2.259H3.615v3.389a1.13,1.13,0,0,0,1.13,1.13H7.016a4.331,4.331,0,0,0,8.487,0h11.47a4.331,4.331,0,0,0,8.487,0h1.97a1.13,1.13,0,0,0,1.13-1.13V11.448c0-3.315-3.5-3.535-3.5-3.54h-8.7a1.13,1.13,0,0,1-1.13-1.13V0H4.745a1.13,1.13,0,0,0-1.13,1.13V3.615H2.259a1.13,1.13,0,0,0,0,2.259Zm24.73,11.15a2.071,2.071,0,1,1-3.536,1.464A2.072,2.072,0,0,1,32.682,17.025Zm-19.958,0a2.071,2.071,0,1,1-3.536,1.464A2.072,2.072,0,0,1,12.724,17.025Zm0,0" transform="translate(262 228)" fill="#142341" fill-rule="evenodd"/>
  </g>
</svg>
