<svg xmlns="http://www.w3.org/2000/svg" width="53" height="53" viewBox="0 0 53 53">
  <g id="Grupo_33349" data-name="Grupo 33349" transform="translate(-255 -213)">
    <circle id="Elipse_354" data-name="Elipse 354" cx="26.5" cy="26.5" r="26.5" transform="translate(255 213)" fill="#b0b6c0"/>
    <path id="star" d="M31.056,11.768a1.652,1.652,0,0,0-1.425-1.138l-8.987-.816L17.091,1.5a1.655,1.655,0,0,0-3.044,0L10.493,9.814,1.5,10.63a1.657,1.657,0,0,0-.939,2.9l6.793,5.958-2,8.824A1.652,1.652,0,0,0,7.817,30.1l7.752-4.633L23.318,30.1a1.655,1.655,0,0,0,2.463-1.788l-2-8.824,6.793-5.956A1.656,1.656,0,0,0,31.056,11.768Zm0,0" transform="translate(265.932 223.766)" fill="#142341"/>
  </g>
</svg>
