<svg xmlns="http://www.w3.org/2000/svg" width="18.065" height="14.7" viewBox="0 0 18.065 14.7">
  <path id="_104501_twitter_bird_icon" data-name="104501_twitter_bird_icon" d="M19.994,11.906a6.7,6.7,0,0,1-1.935.53,3.375,3.375,0,0,0,1.481-1.864,6.743,6.743,0,0,1-2.139.818,3.372,3.372,0,0,0-5.74,3.072,9.565,9.565,0,0,1-6.944-3.52,3.373,3.373,0,0,0,1.043,4.5,3.359,3.359,0,0,1-1.526-.422c0,.014,0,.028,0,.043a3.371,3.371,0,0,0,2.7,3.3,3.387,3.387,0,0,1-.888.118,3.338,3.338,0,0,1-.634-.061,3.372,3.372,0,0,0,3.147,2.339,6.8,6.8,0,0,1-4.987,1.395,9.58,9.58,0,0,0,14.749-8.071q0-.219-.009-.436A6.823,6.823,0,0,0,19.994,11.906Z" transform="translate(-3.304 -9.47)" fill="#142341" stroke="rgba(0,0,0,0)" stroke-width="1"/>
</svg>
