<svg id="local_shipping_black_24dp_1_" data-name="local_shipping_black_24dp (1)" xmlns="http://www.w3.org/2000/svg" width="15.364" height="15.364" viewBox="0 0 15.364 15.364">
  <path id="Caminho_592" data-name="Caminho 592" d="M0,0H15.364V15.364H0Z" fill="none"/>
  <path id="Caminho_593" data-name="Caminho 593" d="M12.843,6.561h-1.6V5.28A1.284,1.284,0,0,0,9.962,4H2.28A1.284,1.284,0,0,0,1,5.28v5.761a1.284,1.284,0,0,0,1.28,1.28,1.92,1.92,0,1,0,3.841,0H9.962a1.92,1.92,0,1,0,3.841,0h.64a.642.642,0,0,0,.64-.64V9.55a1.288,1.288,0,0,0-.256-.768L13.355,6.817a.649.649,0,0,0-.512-.256ZM4.2,12.962a.64.64,0,1,1,.64-.64A.642.642,0,0,1,4.2,12.962Zm8.642-5.441,1.255,1.6H11.243v-1.6Zm-.96,5.441a.64.64,0,1,1,.64-.64A.642.642,0,0,1,11.883,12.962Z" transform="translate(-0.36 -1.439)" fill="#142341"/>
</svg>
