<svg id="_211928_social_youtube_icon" data-name="211928_social_youtube_icon" xmlns="http://www.w3.org/2000/svg" width="17.787" height="13.344" viewBox="0 0 17.787 13.344">
  <g id="Grupo_138" data-name="Grupo 138" transform="translate(0 0)">
    <path id="Caminho_437" data-name="Caminho 437" d="M9.2,65.112c2.269,0,4.124.038,5.84.115h.049a1.6,1.6,0,0,1,1.459,1.706v.038l0,.038c.08,1.181.118,2.407.118,3.644h0c0,1.237-.038,2.463-.118,3.644l0,.038v.038a1.841,1.841,0,0,1-.466,1.254,1.345,1.345,0,0,1-.994.466h-.056c-1.838.087-3.78.132-5.781.132H8.508c-2.008,0-3.95-.045-5.774-.129H2.679a1.337,1.337,0,0,1-.99-.466,1.858,1.858,0,0,1-.466-1.254v-.038l0-.038c-.083-1.185-.122-2.411-.115-3.637v-.007c0-1.226.035-2.449.115-3.634l0-.038v-.038a1.6,1.6,0,0,1,1.456-1.713h.049c1.72-.08,3.575-.115,5.843-.115H9.2M9.2,64H8.574c-2,0-3.967.028-5.892.115A2.7,2.7,0,0,0,.115,66.939c-.087,1.244-.125,2.48-.122,3.721s.031,2.477.118,3.717a2.713,2.713,0,0,0,2.567,2.835q2.856.135,5.829.132h.75q2.975,0,5.833-.132a2.713,2.713,0,0,0,2.571-2.835q.125-1.86.118-3.721c0-1.24-.035-2.477-.118-3.721a2.7,2.7,0,0,0-2.571-2.817C13.167,64.028,11.2,64,9.2,64Z" transform="translate(0.007 -64)" fill="#142341"/>
  </g>
  <g id="Grupo_139" data-name="Grupo 139" transform="translate(7.191 3.245)">
    <path id="Caminho_438" data-name="Caminho 438" d="M207,164.223V157.4l5.037,3.411Z" transform="translate(-207 -157.4)" fill="#142341"/>
  </g>
</svg>
